<svg xmlns="http://www.w3.org/2000/svg" version="1.1" xmlns:xlink="http://www.w3.org/1999/xlink" xmlns:svgjs="http://svgjs.dev/svgjs" width="1500" height="1500" viewBox="0 0 1500 1500"><rect width="1500" height="1500" fill="#ffffff"></rect><g transform="matrix(0.6666666666666666,0,0,0.6666666666666666,249.69288390059052,315.2688172043011)"><svg viewBox="0 0 286 248" data-background-color="#ffffff" preserveAspectRatio="xMidYMid meet" height="1300" width="1500" xmlns="http://www.w3.org/2000/svg" xmlns:xlink="http://www.w3.org/1999/xlink"><g id="tight-bounds" transform="matrix(1,0,0,1,0.0878352044311157,0.4000000000000057)"><svg viewBox="0 0 285.82432959113777 247.2" height="247.2" width="285.82432959113777"><g><svg viewBox="0 0 395.52 342.0721536891572" height="247.2" width="285.82432959113777"><g transform="matrix(1,0,0,1,0,268.00760744091014)"><svg viewBox="0 0 395.52 74.06454624824704" height="74.06454624824704" width="395.52"><g id="textblocktransform"><svg viewBox="0 0 395.52 74.06454624824704" height="74.06454624824704" width="395.52" id="textblock"><g><svg viewBox="0 0 395.52 39.94687717668911" height="39.94687717668911" width="395.52"><g transform="matrix(1,0,0,1,0,0)"><svg width="395.52" viewBox="1 -39.6 430.67 43.5" height="39.94687717668911" data-palette-color="#6575a8"><path d="M41-38.9L41-30.7 38.5-30.7 38.5-8.2 41-8.2 41 0 22.1 0 22.1-8.2 24.5-8.2 24.5-16.45 17.5-16.45 17.5-8.2 19.9-8.2 19.9 0 1 0 1-8.2 3.5-8.2 3.5-30.7 1-30.7 1-38.9 19.9-38.9 19.9-30.7 17.5-30.7 17.5-23.1 24.5-23.1 24.5-30.7 22.1-30.7 22.1-38.9 41-38.9ZM57.8 0.7Q50.7 0.7 46.7-3.03 42.7-6.75 42.7-13.9L42.7-13.9Q42.7-21.05 46.7-24.78 50.7-28.5 57.8-28.5L57.8-28.5Q65-28.5 68.95-24.73 72.9-20.95 72.9-13.9L72.9-13.9Q72.9-6.75 68.9-3.03 64.9 0.7 57.8 0.7L57.8 0.7ZM57.8-8.2Q59.25-8.2 59.97-8.97 60.7-9.75 60.7-11.4L60.7-11.4 60.7-16.4Q60.7-18.05 59.97-18.82 59.25-19.6 57.8-19.6L57.8-19.6Q56.35-19.6 55.62-18.82 54.9-18.05 54.9-16.4L54.9-16.4 54.9-11.4Q54.9-9.75 55.62-8.97 56.35-8.2 57.8-8.2L57.8-8.2ZM122.8-8.2L125-8.2 125 0 109.19 0 109.19-8.2 111.3-8.2 111.3-16.4Q111.3-18.05 110.59-18.82 109.9-19.6 108.5-19.6L108.5-19.6Q105.5-19.6 105.5-16.4L105.5-16.4 105.5-8.2 107.59-8.2 107.59 0 91.89 0 91.89-8.2 94-8.2 94-16.4Q94-18.05 93.3-18.82 92.59-19.6 91.19-19.6L91.19-19.6Q88.19-19.6 88.19-16.4L88.19-16.4 88.19-8.2 90.3-8.2 90.3 0 74.5 0 74.5-8.2 76.69-8.2 76.69-19.6 74.5-19.6 74.5-27.8 88.19-27.8 88.19-23.9Q91.8-28.5 97.19-28.5L97.19-28.5Q100.25-28.5 102.17-27.08 104.09-25.65 104.89-23.05L104.89-23.05Q106.69-25.65 109.02-27.05 111.34-28.45 114.5-28.45L114.5-28.45Q118.65-28.45 120.72-25.85 122.8-23.25 122.8-18.7L122.8-18.7 122.8-8.2ZM141.49 0.7Q134.39 0.7 130.39-3.03 126.39-6.75 126.39-13.9L126.39-13.9Q126.39-21.05 130.39-24.78 134.39-28.5 141.49-28.5L141.49-28.5Q148.54-28.5 151.67-24.83 154.79-21.15 154.79-15.7L154.79-15.7 154.79-12.1 138.59-12.1 138.59-11.8Q138.59-9.95 139.69-9.08 140.79-8.2 143.34-8.2L143.34-8.2Q146.39-8.2 149.14-8.65 151.89-9.1 153.94-9.8L153.94-9.8 153.94-1.8Q152.19-0.85 148.82-0.08 145.44 0.7 141.49 0.7L141.49 0.7ZM138.59-17.6L144.39-17.6 144.39-18.2Q144.39-19.9 143.67-20.65 142.94-21.4 141.49-21.4L141.49-21.4Q140.04-21.4 139.32-20.63 138.59-19.85 138.59-18.2L138.59-18.2 138.59-17.6ZM195.09 3.9Q184.49 3.9 178.11 3.25 171.74 2.6 167.14 0.48 162.54-1.65 159.44-5.9L159.44-5.9Q156.09-10.75 156.09-19.45L156.09-19.45Q156.09-29.6 161.11-34.6 166.14-39.6 175.19-39.6L175.19-39.6Q184.19-39.6 189.24-35.18 194.29-30.75 194.29-21.95L194.29-21.95Q194.29-18.15 193.06-14.83 191.84-11.5 188.84-8.7L188.84-8.7 189.09-8.2 195.09-8.2 195.09 3.9ZM175.19-8.2Q178.59-8.2 178.59-11.9L178.59-11.9 178.59-27Q178.59-30.7 175.19-30.7L175.19-30.7Q171.79-30.7 171.79-27L171.79-27 171.79-11.9Q171.79-8.2 175.19-8.2L175.19-8.2ZM227.49-8.2L229.69-8.2 229.69 0 215.99 0 215.99-3.9Q212.39 0.7 206.99 0.7L206.99 0.7Q202.84 0.7 200.76-1.9 198.69-4.5 198.69-9.05L198.69-9.05 198.69-19.6 196.49-19.6 196.49-27.8 210.19-27.8 210.19-11.4Q210.19-9.75 210.91-8.97 211.64-8.2 213.09-8.2L213.09-8.2Q214.54-8.2 215.26-8.97 215.99-9.75 215.99-11.4L215.99-11.4 215.99-19.6 213.29-19.6 213.29-27.8 227.49-27.8 227.49-8.2ZM245.99 0.7Q238.88 0.7 234.88-3.03 230.88-6.75 230.88-13.9L230.88-13.9Q230.88-21.05 234.88-24.78 238.88-28.5 245.99-28.5L245.99-28.5Q253.03-28.5 256.16-24.83 259.29-21.15 259.29-15.7L259.29-15.7 259.29-12.1 243.09-12.1 243.09-11.8Q243.09-9.95 244.19-9.08 245.28-8.2 247.84-8.2L247.84-8.2Q250.88-8.2 253.63-8.65 256.38-9.1 258.44-9.8L258.44-9.8 258.44-1.8Q256.69-0.85 253.31-0.08 249.94 0.7 245.99 0.7L245.99 0.7ZM243.09-17.6L248.88-17.6 248.88-18.2Q248.88-19.9 248.16-20.65 247.44-21.4 245.99-21.4L245.99-21.4Q244.53-21.4 243.81-20.63 243.09-19.85 243.09-18.2L243.09-18.2 243.09-17.6ZM272.93 0.7Q266.63 0.7 260.78-1.3L260.78-1.3 260.78-8.7 268.88-8.7 268.88-8.2Q268.88-5.8 271.93-5.8L271.93-5.8Q274.63-5.8 274.63-7.65L274.63-7.65Q274.63-8.65 273.86-9.15 273.08-9.65 271.13-10L271.13-10 268.63-10.45Q260.78-11.85 260.78-19.35L260.78-19.35Q260.78-23.7 264.08-26.1 267.38-28.5 272.98-28.5L272.98-28.5Q279.23-28.5 283.53-26.4L283.53-26.4 283.53-19.45 275.93-19.45 275.93-19.95Q275.93-20.95 275.26-21.48 274.58-22 273.28-22L273.28-22Q270.78-22 270.78-20.4L270.78-20.4Q270.78-19.55 271.48-19.1 272.18-18.65 274.03-18.25L274.03-18.25 276.88-17.7Q281.33-16.85 283.23-14.55 285.13-12.25 285.13-8.65L285.13-8.65Q285.13-4.1 281.96-1.7 278.78 0.7 272.93 0.7L272.93 0.7ZM299.08 0.7Q293.78 0.7 291.1-1.88 288.43-4.45 288.43-10.55L288.43-10.55 288.43-19.6 286.23-19.6 286.23-27.8Q288.13-27.8 289.08-28.78 290.03-29.75 290.03-31.45L290.03-31.45 290.03-33.7 300.63-33.7 300.63-27.8 307.38-27.8 307.38-19.6 300.63-19.6 300.63-11.4Q300.63-9.75 301.35-8.97 302.08-8.2 303.53-8.2L303.53-8.2Q305.43-8.2 307.68-8.65L307.68-8.65 307.68-0.8Q306.28-0.25 303.9 0.23 301.53 0.7 299.08 0.7L299.08 0.7ZM318.18 0L310.38 0 310.38-8.2 318.18-8.2 318.18 0ZM336.43 0.7Q329.27 0.7 325.27-3.03 321.27-6.75 321.27-13.9L321.27-13.9Q321.27-21.05 325.27-24.78 329.27-28.5 336.38-28.5L336.38-28.5Q339.82-28.5 342.97-27.55 346.13-26.6 347.88-25.4L347.88-25.4 347.88-15.5 339.27-15.5 339.27-16.4Q339.27-18.05 338.57-18.82 337.88-19.6 336.38-19.6L336.38-19.6Q333.47-19.6 333.47-16.4L333.47-16.4 333.47-12.1Q333.47-8.2 337.93-8.2L337.93-8.2Q342.07-8.2 347.57-9.1L347.57-9.1 347.57-1.25Q345.88-0.5 342.8 0.1 339.72 0.7 336.43 0.7L336.43 0.7ZM364.47 0.7Q357.37 0.7 353.37-3.03 349.37-6.75 349.37-13.9L349.37-13.9Q349.37-21.05 353.37-24.78 357.37-28.5 364.47-28.5L364.47-28.5Q371.67-28.5 375.62-24.73 379.57-20.95 379.57-13.9L379.57-13.9Q379.57-6.75 375.57-3.03 371.57 0.7 364.47 0.7L364.47 0.7ZM364.47-8.2Q365.92-8.2 366.65-8.97 367.37-9.75 367.37-11.4L367.37-11.4 367.37-16.4Q367.37-18.05 366.65-18.82 365.92-19.6 364.47-19.6L364.47-19.6Q363.02-19.6 362.3-18.82 361.57-18.05 361.57-16.4L361.57-16.4 361.57-11.4Q361.57-9.75 362.3-8.97 363.02-8.2 364.47-8.2L364.47-8.2ZM429.47-8.2L431.67-8.2 431.67 0 415.87 0 415.87-8.2 417.97-8.2 417.97-16.4Q417.97-18.05 417.27-18.82 416.57-19.6 415.17-19.6L415.17-19.6Q412.17-19.6 412.17-16.4L412.17-16.4 412.17-8.2 414.27-8.2 414.27 0 398.57 0 398.57-8.2 400.67-8.2 400.67-16.4Q400.67-18.05 399.97-18.82 399.27-19.6 397.87-19.6L397.87-19.6Q394.87-19.6 394.87-16.4L394.87-16.4 394.87-8.2 396.97-8.2 396.97 0 381.17 0 381.17-8.2 383.37-8.2 383.37-19.6 381.17-19.6 381.17-27.8 394.87-27.8 394.87-23.9Q398.47-28.5 403.87-28.5L403.87-28.5Q406.92-28.5 408.85-27.08 410.77-25.65 411.57-23.05L411.57-23.05Q413.37-25.65 415.7-27.05 418.02-28.45 421.17-28.45L421.17-28.45Q425.32-28.45 427.4-25.85 429.47-23.25 429.47-18.7L429.47-18.7 429.47-8.2Z" opacity="1" transform="matrix(1,0,0,1,0,0)" fill="#6575a8" class="wordmark-text-0" data-fill-palette-color="primary" id="text-0"></path></svg></g></svg></g><g transform="matrix(1,0,0,1,82.92804672881749,49.37737615305316)"><svg viewBox="0 0 229.663906542365 24.687170095193867" height="24.687170095193867" width="229.663906542365"><g transform="matrix(1,0,0,1,0,0)"><svg width="229.663906542365" viewBox="1.3 -37.5 439.06 47.2" height="24.687170095193867" data-palette-color="#6575a8"><path d="M28.35-31.85L25.9-26.9Q24-28.1 22.15-28.8 20.3-29.5 18.65-29.8 17-30.1 15.65-30.1L15.65-30.1Q13.05-30.1 11.5-29.1 9.95-28.1 9.95-26.2L9.95-26.2Q9.95-24.5 10.98-23.43 12-22.35 13.68-21.68 15.35-21 17.38-20.4 19.4-19.8 21.4-19.07 23.4-18.35 25.1-17.2 26.8-16.05 27.8-14.28 28.8-12.5 28.8-9.8L28.8-9.8Q28.8-6.7 27.1-4.42 25.4-2.15 22.43-0.9 19.45 0.35 15.6 0.35L15.6 0.35Q12.85 0.35 10.25-0.38 7.65-1.1 5.38-2.35 3.1-3.6 1.3-5.25L1.3-5.25 3.85-10.1Q5.65-8.45 7.68-7.3 9.7-6.15 11.78-5.55 13.85-4.95 15.7-4.95L15.7-4.95Q18.8-4.95 20.53-6.15 22.25-7.35 22.25-9.5L22.25-9.5Q22.25-11.25 21.23-12.33 20.2-13.4 18.53-14.1 16.85-14.8 14.83-15.35 12.8-15.9 10.78-16.63 8.75-17.35 7.08-18.45 5.4-19.55 4.38-21.3 3.35-23.05 3.35-25.75L3.35-25.75Q3.35-28.7 4.95-30.88 6.55-33.05 9.43-34.25 12.3-35.45 16.1-35.45L16.1-35.45Q19.5-35.45 22.7-34.45 25.9-33.45 28.35-31.85L28.35-31.85ZM42.1-32.85L42.1-8.4Q42.1-6.25 42.85-5.48 43.6-4.7 44.95-4.7L44.95-4.7Q45.85-4.7 46.82-5 47.8-5.3 48.95-5.9L48.95-5.9 50.4-1.75Q48.85-0.8 47.2-0.28 45.55 0.25 43.85 0.25L43.85 0.25Q41.85 0.25 40.15-0.53 38.45-1.3 37.42-3 36.4-4.7 36.4-7.4L36.4-7.4 36.4-32.85 42.1-32.85ZM32.65-21.5L32.65-25.6 49.95-25.6 49.95-21.5 32.65-21.5ZM57.85-15.2L74.1-15.2Q74-17.45 73.07-19.03 72.15-20.6 70.5-21.48 68.85-22.35 66.7-22.35L66.7-22.35Q64.3-22.35 62.52-21.25 60.75-20.15 59.75-18.18 58.75-16.2 58.75-13.55L58.75-13.55Q58.75-10.7 59.82-8.6 60.9-6.5 62.82-5.35 64.75-4.2 67.25-4.2L67.25-4.2Q71.7-4.2 74.75-7.35L74.75-7.35 77.8-4.3Q75.85-2.15 73.05-0.98 70.25 0.2 66.8 0.2L66.8 0.2Q62.7 0.2 59.65-1.5 56.6-3.2 54.9-6.23 53.2-9.25 53.2-13.25L53.2-13.25Q53.2-17.25 54.9-20.28 56.6-23.3 59.65-25 62.7-26.7 66.65-26.75L66.65-26.75Q71.35-26.75 74.2-24.83 77.05-22.9 78.25-19.4 79.45-15.9 79.1-11.1L79.1-11.1 57.85-11.1 57.85-15.2ZM100.39-26.75L100.39-26.75Q104.19-26.75 107.04-25.05 109.89-23.35 111.49-20.3 113.09-17.25 113.09-13.2L113.09-13.2Q113.09-9.25 111.52-6.23 109.94-3.2 107.12-1.5 104.29 0.2 100.49 0.2L100.49 0.2Q96.84 0.2 94.27-1.4 91.69-3 90.34-6.03 88.99-9.05 88.99-13.2L88.99-13.2Q88.99-17.5 90.34-20.53 91.69-23.55 94.27-25.15 96.84-26.75 100.39-26.75ZM99.19-22.2L99.19-22.2Q96.84-22.2 94.99-21.05 93.14-19.9 92.12-17.93 91.09-15.95 91.09-13.35L91.09-13.35Q91.09-10.75 92.12-8.72 93.14-6.7 94.99-5.58 96.84-4.45 99.19-4.45L99.19-4.45Q101.59-4.45 103.42-5.6 105.24-6.75 106.27-8.75 107.29-10.75 107.29-13.35L107.29-13.35Q107.29-15.9 106.27-17.9 105.24-19.9 103.42-21.05 101.59-22.2 99.19-22.2ZM85.34 9.7L85.34-26.55 91.09-26.55 91.09 9.7 85.34 9.7ZM132.59 0L132.59-26.55 138.29-26.55 138.29 0 132.59 0ZM135.44-37.5L135.44-37.5Q136.89-37.5 137.84-36.55 138.79-35.6 138.79-34.15L138.79-34.15Q138.79-32.75 137.84-31.78 136.89-30.8 135.44-30.8L135.44-30.8Q134.04-30.8 133.06-31.78 132.09-32.75 132.09-34.15L132.09-34.15Q132.09-35.6 133.06-36.55 134.04-37.5 135.44-37.5ZM166.49 0L166.49-15Q166.49-18.1 164.79-19.88 163.09-21.65 160.09-21.65L160.09-21.65Q156.54-21.6 154.51-19.15 152.49-16.7 152.49-13.05L152.49-13.05 150.89-13.05Q150.89-18 152.29-21 153.69-24 156.26-25.38 158.84-26.75 162.34-26.75L162.34-26.75Q165.44-26.75 167.66-25.5 169.89-24.25 171.06-21.98 172.24-19.7 172.24-16.5L172.24-16.5 172.24 0 166.49 0ZM146.79 0L146.79-26.55 152.54-26.55 152.54 0 146.79 0ZM186.68-32.85L186.68-8.4Q186.68-6.25 187.43-5.48 188.18-4.7 189.53-4.7L189.53-4.7Q190.43-4.7 191.41-5 192.38-5.3 193.53-5.9L193.53-5.9 194.98-1.75Q193.43-0.8 191.78-0.28 190.13 0.25 188.43 0.25L188.43 0.25Q186.43 0.25 184.73-0.53 183.03-1.3 182.01-3 180.98-4.7 180.98-7.4L180.98-7.4 180.98-32.85 186.68-32.85ZM177.23-21.5L177.23-25.6 194.53-25.6 194.53-21.5 177.23-21.5ZM211.68-26.75L211.68-26.75Q215.78-26.75 218.91-25.05 222.03-23.35 223.78-20.33 225.53-17.3 225.53-13.3L225.53-13.3Q225.53-9.3 223.78-6.25 222.03-3.2 218.91-1.5 215.78 0.2 211.68 0.2L211.68 0.2Q207.58 0.2 204.43-1.5 201.28-3.2 199.53-6.25 197.78-9.3 197.78-13.3L197.78-13.3Q197.78-17.3 199.53-20.33 201.28-23.35 204.43-25.05 207.58-26.75 211.68-26.75ZM211.68-22.1L211.68-22.1Q209.28-22.1 207.43-20.98 205.58-19.85 204.56-17.85 203.53-15.85 203.53-13.25L203.53-13.25Q203.53-10.6 204.56-8.6 205.58-6.6 207.43-5.48 209.28-4.35 211.68-4.35L211.68-4.35Q214.08-4.35 215.91-5.48 217.73-6.6 218.76-8.6 219.78-10.6 219.78-13.25L219.78-13.25Q219.78-15.85 218.76-17.85 217.73-19.85 215.91-20.98 214.08-22.1 211.68-22.1ZM266.93-22.65L263.78-18.95Q262.38-20.4 260.48-21.2 258.58-22 256.18-22L256.18-22Q253.88-22 252.08-20.9 250.28-19.8 249.28-17.82 248.28-15.85 248.28-13.25L248.28-13.25Q248.28-10.65 249.28-8.68 250.28-6.7 252.08-5.58 253.88-4.45 256.18-4.45L256.18-4.45Q258.68-4.45 260.68-5.28 262.68-6.1 264.03-7.7L264.03-7.7 267.23-4.55Q265.43-2.3 262.55-1.05 259.68 0.2 255.93 0.2L255.93 0.2Q251.98 0.2 248.95-1.5 245.93-3.2 244.23-6.23 242.53-9.25 242.53-13.25L242.53-13.25Q242.53-17.25 244.23-20.28 245.93-23.3 248.95-25.03 251.98-26.75 255.93-26.75L255.93-26.75Q259.53-26.75 262.3-25.68 265.08-24.6 266.93-22.65L266.93-22.65ZM284.62-26.75L284.62-26.75Q288.72-26.75 291.85-25.05 294.97-23.35 296.72-20.33 298.47-17.3 298.47-13.3L298.47-13.3Q298.47-9.3 296.72-6.25 294.97-3.2 291.85-1.5 288.72 0.2 284.62 0.2L284.62 0.2Q280.52 0.2 277.37-1.5 274.22-3.2 272.47-6.25 270.72-9.3 270.72-13.3L270.72-13.3Q270.72-17.3 272.47-20.33 274.22-23.35 277.37-25.05 280.52-26.75 284.62-26.75ZM284.62-22.1L284.62-22.1Q282.22-22.1 280.37-20.98 278.52-19.85 277.5-17.85 276.47-15.85 276.47-13.25L276.47-13.25Q276.47-10.6 277.5-8.6 278.52-6.6 280.37-5.48 282.22-4.35 284.62-4.35L284.62-4.35Q287.02-4.35 288.85-5.48 290.67-6.6 291.7-8.6 292.72-10.6 292.72-13.25L292.72-13.25Q292.72-15.85 291.7-17.85 290.67-19.85 288.85-20.98 287.02-22.1 284.62-22.1ZM323.82 0L323.82-15Q323.82-18.15 322.17-19.93 320.52-21.7 317.57-21.7L317.57-21.7Q314.12-21.6 312.15-19.15 310.17-16.7 310.17-13.1L310.17-13.1 308.57-13.1Q308.57-18 309.95-21 311.32-24 313.85-25.38 316.37-26.75 319.82-26.75L319.82-26.75Q322.87-26.75 325.05-25.5 327.22-24.25 328.4-21.98 329.57-19.7 329.57-16.5L329.57-16.5 329.57 0 323.82 0ZM343.17 0L343.17-15Q343.17-18.15 341.5-19.93 339.82-21.7 336.87-21.7L336.87-21.7Q333.47-21.6 331.52-19.15 329.57-16.7 329.57-13.1L329.57-13.1 327.92-13.1Q327.92-18 329.3-21 330.67-24 333.2-25.38 335.72-26.75 339.17-26.75L339.17-26.75Q342.22-26.75 344.4-25.5 346.57-24.25 347.75-21.98 348.92-19.7 348.92-16.5L348.92-16.5 348.92 0 343.17 0ZM304.47 0L304.47-26.55 310.17-26.55 310.17 0 304.47 0ZM357.72 0L357.72-28.2Q357.72-31.35 359.04-33.38 360.37-35.4 362.47-36.38 364.57-37.35 366.87-37.35L366.87-37.35Q368.07-37.35 369.29-37.02 370.52-36.7 371.57-36.15L371.57-36.15 370.37-31.75Q369.67-32.05 368.79-32.33 367.92-32.6 367.02-32.6L367.02-32.6Q366.07-32.6 365.24-32.23 364.42-31.85 363.92-31.03 363.42-30.2 363.42-28.9L363.42-28.9 363.42 0 357.72 0ZM354.22-21.5L354.22-25.6 370.37-25.6 370.37-21.5 354.22-21.5ZM385.76-26.75L385.76-26.75Q389.87-26.75 392.99-25.05 396.12-23.35 397.87-20.33 399.62-17.3 399.62-13.3L399.62-13.3Q399.62-9.3 397.87-6.25 396.12-3.2 392.99-1.5 389.87 0.2 385.76 0.2L385.76 0.2Q381.67 0.2 378.51-1.5 375.37-3.2 373.62-6.25 371.87-9.3 371.87-13.3L371.87-13.3Q371.87-17.3 373.62-20.33 375.37-23.35 378.51-25.05 381.67-26.75 385.76-26.75ZM385.76-22.1L385.76-22.1Q383.37-22.1 381.51-20.98 379.67-19.85 378.64-17.85 377.62-15.85 377.62-13.25L377.62-13.25Q377.62-10.6 378.64-8.6 379.67-6.6 381.51-5.48 383.37-4.35 385.76-4.35L385.76-4.35Q388.17-4.35 389.99-5.48 391.81-6.6 392.84-8.6 393.87-10.6 393.87-13.25L393.87-13.25Q393.87-15.85 392.84-17.85 391.81-19.85 389.99-20.98 388.17-22.1 385.76-22.1ZM420.56-26.75L420.56-21.55Q417.71-21.7 415.64-20.58 413.56-19.45 412.44-17.45 411.31-15.45 411.31-12.85L411.31-12.85 409.71-13.05Q409.71-17.5 411.01-20.55 412.31-23.6 414.76-25.18 417.21-26.75 420.56-26.75L420.56-26.75ZM405.61 0L405.61-26.55 411.36-26.55 411.36 0 405.61 0ZM432.06-32.85L432.06-8.4Q432.06-6.25 432.81-5.48 433.56-4.7 434.91-4.7L434.91-4.7Q435.81-4.7 436.79-5 437.76-5.3 438.91-5.9L438.91-5.9 440.36-1.75Q438.81-0.8 437.16-0.28 435.51 0.25 433.81 0.25L433.81 0.25Q431.81 0.25 430.11-0.53 428.41-1.3 427.38-3 426.36-4.7 426.36-7.4L426.36-7.4 426.36-32.85 432.06-32.85ZM422.61-21.5L422.61-25.6 439.91-25.6 439.91-21.5 422.61-21.5Z" opacity="1" transform="matrix(1,0,0,1,0,0)" fill="#6575a8" class="slogan-text-1" data-fill-palette-color="secondary" id="text-1"></path></svg></g></svg></g></svg></g></svg></g><g transform="matrix(1,0,0,1,75.54432,0)"><svg viewBox="0 0 244.43135999999998 244.43135999999998" height="244.43135999999998" width="244.43135999999998"><g><svg viewBox="0 0 244.43135999999998 244.43135999999998" height="244.43135999999998" width="244.43135999999998"><g transform="matrix(1,0,0,1,64.60265593644992,68.2034699404218)"><svg viewBox="0 0 115.22604812710014 108.02442011915639" height="108.02442011915639" width="115.22604812710014"><g><svg xmlns="http://www.w3.org/2000/svg" version="1.1" data-icon="home" viewBox="0 0 16 15" x="0" y="0" height="108.02442011915639" width="115.22604812710014" class="icon-dxe-0" data-fill-palette-color="accent" id="dxe-0"><path d="M8 0L0 7H2V15H7V12H9V15H14V7H16z" fill="#e3c4e5" data-fill-palette-color="accent"></path></svg></g></svg></g><g id="text-0"><path d="M8.193 67.271l4.293 1.601-0.486 1.301 11.778 4.392 0.485-1.302 4.294 1.601-3.687 9.888-4.293-1.601 0.467-1.254-4.322-1.611-1.367 3.666 4.322 1.612 0.471-1.264 4.293 1.601-3.69 9.897-4.293-1.601 0.488-1.31-11.777-4.392-0.489 1.311-4.293-1.601 3.69-9.897 4.293 1.601-0.471 1.263 3.98 1.484 1.367-3.666-3.98-1.484-0.467 1.253-4.293-1.6z" fill="#e3c4e5" data-fill-palette-color="accent"></path><path d="M35.387 64.731c-1.454 2.215-3.17 3.562-5.15 4.041-1.974 0.483-4.074-0.006-6.3-1.467v0c-2.226-1.461-3.51-3.193-3.853-5.197-0.348-2.007 0.205-4.118 1.659-6.332v0c1.468-2.237 3.194-3.586 5.177-4.046 1.984-0.46 4.074 0.031 6.272 1.473v0c2.226 1.461 3.508 3.196 3.848 5.204 0.348 2.007-0.203 4.115-1.653 6.324zM31.226 62c0.297-0.452 0.398-0.871 0.303-1.256-0.089-0.382-0.391-0.741-0.905-1.079v0l-2.339-1.535c-0.514-0.337-0.964-0.471-1.349-0.401-0.391 0.067-0.735 0.326-1.032 0.778v0c-0.297 0.452-0.398 0.871-0.303 1.256 0.089 0.382 0.391 0.741 0.904 1.079v0l2.339 1.535c0.514 0.337 0.964 0.471 1.35 0.401 0.391-0.067 0.735-0.326 1.032-0.778z" fill="#e3c4e5" data-fill-palette-color="accent"></path><path d="M58.745 33.112l0.91-0.837 3.1 3.375-6.504 5.972-3.099-3.375 0.866-0.795-3.099-3.375c-0.416-0.453-0.817-0.695-1.203-0.725-0.391-0.036-0.778 0.122-1.161 0.474v0c-0.821 0.754-0.83 1.569-0.025 2.445v0l3.099 3.375 0.866-0.795 3.099 3.375-6.465 5.937-3.1-3.375 0.867-0.795-3.1-3.375c-0.416-0.453-0.815-0.697-1.195-0.732-0.391-0.036-0.778 0.122-1.161 0.474v0c-0.821 0.754-0.83 1.569-0.025 2.446v0l3.099 3.374 0.858-0.788 3.1 3.375-6.496 5.965-3.099-3.375 0.903-0.83-4.306-4.689-0.903 0.83-3.099-3.375 5.637-5.176 1.474 1.605c-0.175-2.169 0.478-3.935 1.962-5.297v0c0.836-0.768 1.699-1.198 2.587-1.289 0.884-0.096 1.765 0.113 2.642 0.629v0c-0.165-1.169-0.106-2.238 0.18-3.207 0.285-0.968 0.861-1.85 1.727-2.645v0c1.14-1.047 2.32-1.475 3.541-1.284 1.226 0.196 2.41 0.916 3.553 2.16v0z" fill="#e3c4e5" data-fill-palette-color="accent"></path><path d="M73.289 30.186c-2.326 1.269-4.474 1.648-6.446 1.137-1.969-0.504-3.59-1.925-4.866-4.262v0c-1.275-2.338-1.592-4.47-0.95-6.399 0.639-1.934 2.121-3.535 4.447-4.804v0c2.302-1.256 4.292-1.56 5.969-0.911 1.68 0.639 3.007 1.851 3.981 3.636v0l0.961 1.762-7.947 4.335 0.083 0.151c0.33 0.605 0.754 0.951 1.271 1.039 0.511 0.091 1.185-0.092 2.021-0.549v0c0.997-0.544 1.903-1.134 2.718-1.771 0.824-0.634 1.508-1.25 2.052-1.847v0l2.141 3.925c-0.407 0.622-1.093 1.362-2.057 2.219-0.964 0.857-2.09 1.637-3.378 2.339zM66.967 21.983l2.848-1.553-0.16-0.294c-0.304-0.558-0.641-0.893-1.011-1.007-0.37-0.114-0.792-0.041-1.267 0.218v0c-0.475 0.259-0.763 0.578-0.864 0.956-0.098 0.385 0 0.847 0.294 1.387v0z" fill="#e3c4e5" data-fill-palette-color="accent"></path><path d="M104.525 20.852c-3.787 1.112-6.856 1.886-9.207 2.322-2.345 0.435-4.448 0.514-6.312 0.237-1.87-0.275-3.582-1.009-5.136-2.201v0c-1.701-1.381-3.009-3.628-3.922-6.74v0c-1.064-3.625-0.964-6.595 0.3-8.91 1.273-2.31 3.527-3.941 6.763-4.89v0c3.216-0.944 5.958-0.89 8.225 0.163 2.272 1.045 3.869 3.139 4.792 6.284v0c0.4 1.362 0.553 2.701 0.461 4.017-0.086 1.314-0.52 2.632-1.301 3.953v0l0.213 0.222 3.219-0.945zM91.95 17.496c1.219-0.358 1.634-1.198 1.246-2.521v0l-2.375-8.092c-0.388-1.323-1.192-1.805-2.411-1.447v0c-1.213 0.356-1.625 1.195-1.237 2.518v0l2.376 8.092c0.388 1.323 1.189 1.806 2.401 1.45z" fill="#e3c4e5" data-fill-palette-color="accent"></path><path d="M124.485 12.675l1.234-0.073 0.27 4.574-7.64 0.451-0.128-2.176c-1.241 1.793-2.864 2.748-4.868 2.867v0c-1.545 0.091-2.731-0.326-3.557-1.253-0.833-0.919-1.299-2.225-1.399-3.918v0l-0.347-5.88-1.224 0.073-0.27-4.574 7.64-0.451 0.54 9.148c0.036 0.614 0.198 1.055 0.484 1.322 0.287 0.274 0.7 0.395 1.24 0.364v0c0.54-0.032 0.936-0.201 1.189-0.507 0.253-0.299 0.362-0.756 0.325-1.37v0l-0.27-4.574-1.507 0.089-0.27-4.574 7.913-0.467z" fill="#e3c4e5" data-fill-palette-color="accent"></path><path d="M137.994 18.993c-2.623-0.368-4.575-1.344-5.853-2.93-1.28-1.578-1.735-3.686-1.366-6.322v0c0.37-2.637 1.387-4.538 3.051-5.704 1.666-1.172 3.81-1.575 6.434-1.207v0c2.597 0.364 4.375 1.306 5.336 2.826 0.968 1.514 1.311 3.278 1.029 5.293v0l-0.279 1.988-8.964-1.257-0.024 0.171c-0.096 0.683 0.038 1.213 0.401 1.591 0.357 0.378 1.007 0.632 1.95 0.765v0c1.124 0.158 2.204 0.224 3.238 0.198 1.04-0.018 1.956-0.105 2.749-0.26v0l-0.621 4.427c-0.698 0.257-1.69 0.442-2.974 0.556-1.285 0.113-2.654 0.068-4.107-0.135zM137.808 8.638l3.212 0.451 0.047-0.332c0.088-0.629 0.018-1.1-0.212-1.411-0.229-0.312-0.612-0.505-1.147-0.581v0c-0.535-0.075-0.957 0.009-1.263 0.253-0.308 0.25-0.505 0.68-0.591 1.289v0z" fill="#e3c4e5" data-fill-palette-color="accent"></path><path d="M155.648 23.142c-2.228-0.731-4.259-1.791-6.093-3.183v0l1.286-3.92 4.296 1.409-0.086 0.26c-0.278 0.848 0.122 1.448 1.202 1.802v0c0.957 0.314 1.543 0.143 1.757-0.512v0c0.116-0.353 0.064-0.662-0.155-0.926-0.217-0.27-0.649-0.579-1.297-0.926v0l-1.25-0.677c-2.612-1.404-3.483-3.432-2.613-6.084v0c0.505-1.541 1.478-2.545 2.918-3.012 1.449-0.471 3.165-0.381 5.15 0.27v0c2.209 0.724 3.952 1.708 5.23 2.953v0l-1.21 3.689-4.036-1.324 0.085-0.26c0.118-0.36 0.088-0.668-0.091-0.926-0.177-0.264-0.496-0.472-0.958-0.623v0c-0.88-0.288-1.412-0.15-1.598 0.415v0c-0.099 0.302-0.052 0.57 0.142 0.803 0.198 0.243 0.601 0.542 1.21 0.899v0l1.414 0.794c1.476 0.811 2.418 1.735 2.825 2.772 0.4 1.035 0.392 2.188-0.025 3.459v0c-0.529 1.612-1.49 2.658-2.886 3.139-1.404 0.486-3.143 0.388-5.217-0.291z" fill="#e3c4e5" data-fill-palette-color="accent"></path><path d="M172.049 30.152c-1.751-0.909-2.847-2.018-3.286-3.327-0.446-1.313-0.145-2.976 0.901-4.992v0l2.33-4.49-1.089-0.565 2.111-4.066c0.63 0.327 1.185 0.409 1.665 0.247 0.477-0.156 0.862-0.516 1.155-1.08v0l0.579-1.115 5.263 2.732-1.518 2.924 3.347 1.737-2.111 4.067-3.347-1.738-2.111 4.067c-0.283 0.546-0.37 1.007-0.261 1.383 0.106 0.382 0.396 0.697 0.87 0.943v0c0.63 0.327 1.355 0.608 2.177 0.845v0l-2.023 3.895c-0.555-0.06-1.266-0.216-2.133-0.467-0.87-0.246-1.71-0.579-2.519-1z" fill="#e3c4e5" data-fill-palette-color="accent"></path><path d="M184.467 37.264l-3.605-2.45 2.576-3.789 3.605 2.45z" fill="#e3c4e5" data-fill-palette-color="accent"></path><path d="M194.517 46.47c-1.958-1.804-3.012-3.722-3.162-5.753-0.155-2.026 0.67-4.018 2.474-5.977v0c1.804-1.958 3.723-2.943 5.755-2.954 2.037-0.016 4.029 0.873 5.977 2.668v0c0.944 0.87 1.725 1.833 2.342 2.889 0.627 1.055 1.027 1.967 1.202 2.734v0l-3.75 4.07-3.526-3.249 0.343-0.373c0.417-0.452 0.624-0.872 0.623-1.259 0.003-0.392-0.199-0.776-0.607-1.152v0c-0.795-0.733-1.596-0.662-2.401 0.213v0l-1.628 1.767c-0.985 1.069-0.868 2.164 0.349 3.286v0c1.138 1.049 2.572 2.145 4.303 3.289v0l-2.968 3.22c-0.655-0.227-1.48-0.643-2.475-1.247-0.996-0.614-1.946-1.338-2.851-2.172z" fill="#e3c4e5" data-fill-palette-color="accent"></path><path d="M206.81 60.517c-1.577-2.129-2.249-4.205-2.015-6.228 0.228-2.019 1.412-3.821 3.551-5.407v0c2.139-1.585 4.208-2.193 6.207-1.822 2.004 0.366 3.794 1.613 5.371 3.742v0c1.593 2.15 2.263 4.236 2.01 6.256-0.252 2.021-1.435 3.813-3.547 5.378v0c-2.139 1.585-4.21 2.19-6.212 1.814-2.004-0.366-3.792-1.61-5.365-3.733zM210.809 57.554c0.322 0.434 0.68 0.674 1.074 0.718 0.389 0.048 0.831-0.111 1.325-0.477v0l2.248-1.665c0.494-0.366 0.775-0.742 0.842-1.129 0.073-0.39-0.052-0.802-0.374-1.237v0c-0.322-0.434-0.68-0.674-1.074-0.718-0.389-0.048-0.831 0.111-1.325 0.477v0l-2.248 1.666c-0.494 0.366-0.775 0.742-0.842 1.128-0.073 0.39 0.052 0.802 0.374 1.237z" fill="#e3c4e5" data-fill-palette-color="accent"></path><path d="M228.433 93.349l0.471 1.144-4.236 1.745-3.363-8.163 4.236-1.746 0.448 1.087 4.236-1.745c0.569-0.234 0.934-0.527 1.096-0.879 0.168-0.354 0.153-0.772-0.044-1.253v0c-0.425-1.031-1.187-1.32-2.287-0.867v0l-4.237 1.745 0.448 1.087-4.236 1.746-3.344-8.117 4.237-1.745 0.447 1.087 4.237-1.745c0.569-0.234 0.935-0.524 1.1-0.87 0.168-0.354 0.153-0.772-0.045-1.253v0c-0.425-1.031-1.187-1.32-2.287-0.867v0l-4.236 1.745 0.444 1.078-4.237 1.745-3.359-8.154 4.237-1.746 0.467 1.135 5.886-2.425-0.467-1.134 4.236-1.746 2.915 7.077-2.015 0.83c2.097 0.583 3.529 1.806 4.296 3.668v0c0.432 1.05 0.538 2.007 0.318 2.873-0.215 0.863-0.715 1.617-1.502 2.263v0c1.155 0.248 2.137 0.673 2.948 1.275 0.811 0.602 1.44 1.446 1.888 2.533v0c0.589 1.431 0.584 2.687-0.016 3.767-0.606 1.083-1.691 1.946-3.253 2.59v0z" fill="#e3c4e5" data-fill-palette-color="accent"></path><path d="M34.776 169.159l-4.367 1.637-0.498-1.329-11.978 4.491 0.498 1.329-4.366 1.637-3.773-10.061 4.367-1.637 0.477 1.272 4.394-1.648-1.395-3.721-4.394 1.648 0.476 1.272-4.366 1.637-3.772-10.061 4.366-1.637 0.498 1.328 11.979-4.491-0.498-1.328 4.366-1.637 3.772 10.061-4.366 1.637-0.477-1.272-4.043 1.516 1.395 3.721 4.043-1.516-0.477-1.272 4.367-1.637z" fill="#e3c4e5" data-fill-palette-color="accent"></path><path d="M21.761 190.409c-1.48-2.246-2.047-4.389-1.7-6.431 0.343-2.047 1.645-3.816 3.908-5.307v0c2.263-1.491 4.402-1.99 6.419-1.498 2.012 0.487 3.758 1.853 5.238 4.099v0c1.502 2.28 2.068 4.44 1.697 6.482-0.374 2.035-1.676 3.788-3.905 5.256v0c-2.263 1.491-4.4 1.993-6.413 1.506-2.012-0.487-3.76-1.856-5.244-4.107zM25.985 187.626c0.305 0.463 0.653 0.727 1.045 0.792 0.401 0.068 0.861-0.069 1.379-0.411v0l2.379-1.568c0.519-0.342 0.827-0.711 0.922-1.105 0.094-0.386-0.012-0.81-0.316-1.273v0c-0.301-0.457-0.649-0.721-1.045-0.792-0.397-0.062-0.855 0.078-1.374 0.42v0l-2.378 1.567c-0.519 0.342-0.828 0.708-0.928 1.097-0.09 0.391 0.015 0.815 0.316 1.273z" fill="#e3c4e5" data-fill-palette-color="accent"></path><path d="M54.826 217.849l0.92 0.841-3.145 3.442-6.63-6.059 3.146-3.442 0.883 0.807 3.146-3.442c0.419-0.459 0.63-0.889 0.63-1.291 0.001-0.392-0.192-0.766-0.581-1.122v0c-0.843-0.77-1.673-0.709-2.489 0.184v0l-3.146 3.442 0.883 0.807-3.145 3.442-6.593-6.025 3.146-3.442 0.883 0.807 3.146-3.442c0.419-0.459 0.632-0.887 0.638-1.284 0.001-0.392-0.195-0.769-0.589-1.129v0c-0.838-0.766-1.665-0.702-2.481 0.19v0l-3.146 3.442 0.883 0.807-3.146 3.442-6.637-6.066 3.146-3.442 0.928 0.848 4.37-4.781-0.928-0.848 3.146-3.442 5.754 5.259-1.491 1.631c2.184-0.366 4.032 0.142 5.543 1.523v0c0.853 0.78 1.367 1.615 1.541 2.507 0.174 0.891 0.04 1.804-0.401 2.737v0c1.169-0.268 2.256-0.3 3.26-0.096 1.009 0.199 1.954 0.701 2.838 1.508v0c1.162 1.062 1.7 2.222 1.613 3.479-0.082 1.262-0.704 2.529-1.867 3.801v0z" fill="#e3c4e5" data-fill-palette-color="accent"></path><path d="M65.721 230.346c-2.365-1.281-3.876-2.904-4.534-4.867-0.664-1.966-0.351-4.141 0.94-6.523v0c1.291-2.383 2.941-3.833 4.951-4.35 2.004-0.521 4.188-0.14 6.553 1.141v0c2.353 1.275 3.716 2.809 4.09 4.602 0.377 1.787 0.074 3.587-0.908 5.4v0l-0.976 1.8-8.092-4.385-0.082 0.152c-0.335 0.618-0.4 1.171-0.196 1.658 0.211 0.491 0.741 0.966 1.591 1.427v0c1.016 0.551 2.022 0.999 3.017 1.346 1.001 0.35 1.908 0.592 2.721 0.725v0l-2.169 4.002c-0.759-0.004-1.771-0.179-3.035-0.527-1.261-0.353-2.552-0.887-3.871-1.601zM69.232 220.419l2.897 1.57 0.164-0.303c0.306-0.564 0.405-1.037 0.296-1.419-0.102-0.378-0.397-0.7-0.885-0.964v0c-0.481-0.261-0.913-0.329-1.295-0.206-0.379 0.133-0.717 0.472-1.013 1.019v0z" fill="#e3c4e5" data-fill-palette-color="accent"></path><path d="M99.4 244.431c-3.861-1.122-6.915-2.14-9.163-3.053-2.255-0.909-4.108-1.992-5.558-3.251-1.448-1.265-2.512-2.834-3.192-4.707v0c-0.707-2.12-0.601-4.763 0.32-7.93v0c1.073-3.693 2.789-6.185 5.149-7.476 2.358-1.285 5.185-1.449 8.482-0.491v0c3.271 0.95 5.594 2.498 6.969 4.643 1.369 2.143 1.588 4.818 0.656 8.023v0c-0.402 1.382-1.002 2.612-1.8 3.689-0.794 1.085-1.887 1.978-3.28 2.678v0l0.057 0.313 3.28 0.953zM90.457 234.665c1.233 0.358 2.046-0.137 2.438-1.487v0l2.393-8.235c0.392-1.35-0.028-2.204-1.261-2.563v0c-1.24-0.36-2.055 0.135-2.448 1.485v0l-2.393 8.235c-0.392 1.35 0.031 2.205 1.271 2.565z" fill="#e3c4e5" data-fill-palette-color="accent"></path><path d="M124.598 239.654l1.245 0.07-0.262 4.656-7.783-0.437 0.125-2.217c-1.454 1.665-3.203 2.44-5.248 2.325v0c-1.572-0.088-2.725-0.647-3.459-1.676-0.728-1.022-1.043-2.397-0.947-4.125v0l0.336-5.981-1.245-0.07 0.262-4.656 7.773 0.437-0.523 9.311c-0.035 0.621 0.078 1.087 0.338 1.4 0.254 0.305 0.657 0.473 1.21 0.504v0c0.547 0.031 0.966-0.091 1.259-0.366 0.287-0.282 0.447-0.733 0.482-1.353v0l0.262-4.656-1.529-0.086 0.262-4.656 8.066 0.453z" fill="#e3c4e5" data-fill-palette-color="accent"></path><path d="M140.586 243.178c-2.663 0.38-4.843-0.022-6.541-1.207-1.705-1.183-2.749-3.117-3.131-5.799v0c-0.383-2.683 0.079-4.831 1.384-6.444 1.299-1.612 3.28-2.608 5.943-2.988v0c2.649-0.378 4.658 0.042 6.026 1.259 1.367 1.211 2.197 2.837 2.488 4.878v0l0.289 2.027-9.112 1.3 0.025 0.171c0.099 0.696 0.376 1.178 0.831 1.448 0.462 0.269 1.171 0.335 2.127 0.198v0c1.144-0.163 2.219-0.402 3.226-0.716 1.013-0.315 1.885-0.662 2.617-1.039v0l0.643 4.506c-0.612 0.449-1.529 0.911-2.752 1.385-1.223 0.468-2.578 0.808-4.063 1.021zM137.491 233.113l3.262-0.465-0.049-0.341c-0.091-0.636-0.293-1.074-0.608-1.316-0.308-0.243-0.736-0.325-1.284-0.247v0c-0.542 0.077-0.929 0.279-1.163 0.606-0.226 0.333-0.294 0.807-0.206 1.422v0z" fill="#e3c4e5" data-fill-palette-color="accent"></path><path d="M160.986 238.346c-2.265 0.747-4.572 1.11-6.921 1.088v0l-1.318-3.995 4.38-1.445 0.089 0.27c0.286 0.866 0.977 1.119 2.075 0.756v0c0.969-0.32 1.344-0.813 1.123-1.48v0c-0.119-0.359-0.345-0.583-0.68-0.673-0.342-0.087-0.883-0.079-1.626 0.024v0l-1.427 0.204c-2.997 0.427-4.941-0.708-5.83-3.403v0c-0.517-1.566-0.321-2.979 0.587-4.239 0.901-1.258 2.36-2.22 4.375-2.884v0c2.246-0.741 4.271-0.989 6.074-0.745v0l1.238 3.755-4.11 1.356-0.089-0.27c-0.119-0.359-0.332-0.595-0.639-0.707-0.299-0.108-0.683-0.084-1.151 0.07v0c-0.905 0.299-1.262 0.737-1.072 1.315v0c0.1 0.302 0.305 0.494 0.617 0.575 0.303 0.078 0.812 0.077 1.526-0.001v0l1.639-0.21c1.7-0.219 3.029-0.028 3.989 0.573 0.953 0.603 1.644 1.553 2.072 2.85v0c0.54 1.637 0.382 3.076-0.475 4.32-0.859 1.237-2.34 2.203-4.446 2.897z" fill="#e3c4e5" data-fill-palette-color="accent"></path><path d="M179.73 230.323c-1.781 0.926-3.345 1.191-4.693 0.796-1.351-0.402-2.56-1.628-3.627-3.678v0l-2.371-4.56-1.116 0.58-2.151-4.137c0.642-0.334 1.035-0.748 1.182-1.243 0.152-0.498 0.08-1.032-0.216-1.602v0l-0.59-1.133 5.342-2.778 1.548 2.977 3.409-1.773 2.152 4.137-3.409 1.773 2.152 4.137c0.287 0.552 0.622 0.895 1.004 1.031 0.38 0.13 0.813 0.069 1.299-0.184v0c0.636-0.331 1.295-0.769 1.978-1.315v0l2.058 3.958c-0.377 0.432-0.922 0.937-1.635 1.513-0.716 0.571-1.488 1.071-2.316 1.501z" fill="#e3c4e5" data-fill-palette-color="accent"></path><path d="M193.223 221.659l-3.675 2.492-2.617-3.859 3.674-2.492z" fill="#e3c4e5" data-fill-palette-color="accent"></path><path d="M205.481 211.727c-1.997 1.832-4.031 2.739-6.102 2.721-2.075-0.013-4.029-1.018-5.86-3.015v0c-1.832-1.997-2.665-4.03-2.499-6.099 0.161-2.064 1.232-4.005 3.215-5.823v0c0.966-0.886 2.011-1.597 3.134-2.132 1.124-0.545 2.082-0.874 2.876-0.988v0l3.81 4.154-3.601 3.302-0.349-0.381c-0.42-0.458-0.828-0.708-1.223-0.748-0.396-0.031-0.803 0.145-1.221 0.528v0c-0.807 0.74-0.801 1.556 0.016 2.447v0l1.651 1.801c1 1.091 2.121 1.067 3.361-0.07v0c1.16-1.064 2.393-2.424 3.699-4.081v0l3.015 3.287c-0.281 0.643-0.773 1.442-1.474 2.397-0.711 0.955-1.527 1.854-2.448 2.7z" fill="#e3c4e5" data-fill-palette-color="accent"></path><path d="M219.821 195.479c-1.607 2.157-3.429 3.42-5.467 3.789-2.041 0.375-4.148-0.247-6.321-1.866v0c-2.173-1.619-3.371-3.461-3.595-5.524-0.228-2.058 0.462-4.165 2.069-6.322v0c1.632-2.189 3.47-3.457 5.515-3.804 2.041-0.341 4.132 0.286 6.273 1.881v0c2.173 1.619 3.373 3.458 3.601 5.516 0.228 2.058-0.464 4.168-2.075 6.33zM215.765 192.456c0.331-0.444 0.461-0.862 0.389-1.252-0.073-0.4-0.359-0.786-0.857-1.157v0l-2.284-1.703c-0.499-0.372-0.95-0.535-1.353-0.49-0.395 0.043-0.757 0.287-1.089 0.731v0c-0.327 0.439-0.457 0.856-0.389 1.252 0.077 0.394 0.365 0.777 0.863 1.149v0l2.284 1.702c0.499 0.372 0.948 0.538 1.347 0.499 0.399-0.049 0.761-0.292 1.089-0.731z" fill="#e3c4e5" data-fill-palette-color="accent"></path><path d="M234.363 155.048l0.477-1.152 4.308 1.786-3.441 8.297-4.307-1.787 0.458-1.105-4.307-1.786c-0.574-0.238-1.051-0.289-1.429-0.153-0.369 0.132-0.655 0.442-0.857 0.928v0c-0.438 1.055-0.098 1.814 1.02 2.278v0l4.307 1.786 0.458-1.105 4.307 1.786-3.421 8.25-4.307-1.786 0.458-1.105-4.307-1.787c-0.574-0.238-1.049-0.292-1.425-0.163-0.369 0.132-0.656 0.445-0.861 0.938v0c-0.435 1.049-0.094 1.805 1.024 2.268v0l4.307 1.787 0.458-1.105 4.308 1.786-3.445 8.306-4.307-1.787 0.482-1.161-5.984-2.481-0.481 1.161-4.308-1.786 2.987-7.201 2.041 0.847c-1.088-1.929-1.239-3.839-0.455-5.731v0c0.443-1.067 1.054-1.835 1.833-2.302 0.779-0.467 1.682-0.652 2.71-0.555v0c-0.65-1.008-1.05-2.019-1.201-3.033-0.157-1.016-0.006-2.076 0.453-3.181v0c0.603-1.454 1.511-2.355 2.722-2.701 1.214-0.352 2.617-0.199 4.209 0.462v0z" fill="#e3c4e5" data-fill-palette-color="accent"></path><path d="M1.095 122.963c0-4.666 3.783-8.449 8.45-8.449 4.666 0 8.449 3.783 8.449 8.449 0 4.666-3.783 8.449-8.449 8.449-4.666 0-8.449-3.783-8.45-8.449z" fill="#e3c4e5" data-fill-palette-color="accent"></path><path d="M227.146 122.963c0-4.666 3.783-8.449 8.449-8.449 4.666 0 8.449 3.783 8.45 8.449 0 4.666-3.783 8.449-8.45 8.449-4.666 0-8.449-3.783-8.449-8.449z" fill="#e3c4e5" data-fill-palette-color="accent"></path></g><g id="text-1"></g></svg></g></svg></g><g></g></svg></g><defs></defs></svg><rect width="285.82432959113777" height="247.2" fill="none" stroke="none" visibility="hidden"></rect></g></svg></g></svg>